<?xml version="1.0" encoding="utf-8"?>
<!-- Generator: Adobe Illustrator 16.0.4, SVG Export Plug-In . SVG Version: 6.00 Build 0)  -->
<!DOCTYPE svg PUBLIC "-//W3C//DTD SVG 1.1//EN" "http://www.w3.org/Graphics/SVG/1.1/DTD/svg11.dtd">
<svg version="1.1" id="Layer_1" xmlns="http://www.w3.org/2000/svg" xmlns:xlink="http://www.w3.org/1999/xlink" x="0px" y="0px"
	 width="16px" height="16px" viewBox="0 0 16 16" enable-background="new 0 0 16 16" xml:space="preserve">
<g>
	<path fill="#EE2A7B" d="M15.752,6.647l-3.486,3.548l0.826,5.014c0.01,0.069,0.01,0.13,0.01,0.199c0,0.26-0.114,0.503-0.394,0.503
		c-0.134,0-0.269-0.051-0.385-0.121l-4.312-2.366L3.7,15.79c-0.126,0.07-0.25,0.121-0.385,0.121c-0.277,0-0.403-0.243-0.403-0.503
		c0-0.069,0.01-0.13,0.02-0.199l0.826-5.014L0.262,6.647c-0.115-0.13-0.24-0.301-0.24-0.481c0-0.301,0.297-0.421,0.538-0.461
		L5.38,4.973l2.161-4.562C7.627,0.221,7.792,0,8.011,0c0.221,0,0.385,0.221,0.472,0.411l2.161,4.562l4.82,0.732
		c0.231,0.04,0.539,0.16,0.539,0.461C16.003,6.346,15.877,6.517,15.752,6.647z"/>
</g>
</svg>
