<?xml version="1.0" encoding="utf-8"?>
<!-- Generator: Adobe Illustrator 17.0.2, SVG Export Plug-In . SVG Version: 6.00 Build 0)  -->
<!DOCTYPE svg PUBLIC "-//W3C//DTD SVG 1.1//EN" "http://www.w3.org/Graphics/SVG/1.1/DTD/svg11.dtd" [
	<!ENTITY st0 "fill:#ED1E79;">
]>
<svg version="1.1" id="Layer_1" xmlns="http://www.w3.org/2000/svg" xmlns:xlink="http://www.w3.org/1999/xlink" x="0px" y="0px"
	 width="16px" height="16px" viewBox="0 0 16 16" style="enable-background:new 0 0 16 16;" xml:space="preserve">
<g>
	<path style="&st0;" d="M12.959,16H3.033C1.215,16,0,14.999,0,13.301c0-2.072,0.455-5.343,3.158-5.885
		c-0.182,0.396-0.25,0.823-0.25,1.25v2.115c-0.874,0.281-1.454,1.041-1.454,1.885c0,1.104,0.977,2,2.181,2s2.181-0.896,2.181-2
		c0-0.844-0.59-1.604-1.454-1.885V8.667c0-0.344,0.034-0.687,0.284-0.969C5.6,8.386,6.781,8.781,7.997,8.781s2.396-0.396,3.35-1.084
		c0.25,0.282,0.285,0.625,0.285,0.969v0.667c-1.601,0-2.908,1.198-2.908,2.667v0.926c-0.227,0.188-0.363,0.459-0.363,0.74
		c0,0.553,0.489,1.001,1.09,1.001s1.09-0.448,1.09-1.001c0-0.281-0.136-0.551-0.363-0.74V12c0-0.729,0.657-1.333,1.454-1.333
		c0.795,0,1.454,0.604,1.454,1.333v0.926c-0.229,0.188-0.364,0.459-0.364,0.74c0,0.553,0.489,1.001,1.09,1.001
		c0.603,0,1.091-0.448,1.091-1.001c0-0.281-0.136-0.551-0.363-0.74V12c0-0.948-0.558-1.834-1.454-2.302
		c0-0.76,0.079-1.573-0.25-2.281c2.702,0.541,3.158,3.812,3.158,5.885C15.993,14.999,14.778,16,12.959,16z M3.635,13.333
		c-0.397,0-0.727-0.302-0.727-0.667S3.237,12,3.635,12s0.727,0.302,0.727,0.667S4.032,13.333,3.635,13.333z M7.997,8
		C5.589,8,3.635,6.208,3.635,4s1.954-4,4.362-4s4.36,1.792,4.36,4S10.404,8,7.997,8z"/>
</g>
</svg>
