<?xml version="1.0" encoding="utf-8"?>
<!-- Generator: Adobe Illustrator 16.0.4, SVG Export Plug-In . SVG Version: 6.00 Build 0)  -->
<!DOCTYPE svg PUBLIC "-//W3C//DTD SVG 1.1//EN" "http://www.w3.org/Graphics/SVG/1.1/DTD/svg11.dtd">
<svg version="1.1" id="Layer_1" xmlns="http://www.w3.org/2000/svg" xmlns:xlink="http://www.w3.org/1999/xlink" x="0px" y="0px"
	 width="16px" height="16px" viewBox="0 0 16 16" enable-background="new 0 0 16 16" xml:space="preserve">
<g>
	<path fill="#00FFFF" d="M16.019,14.975c0,0.553-0.538,0.998-1.201,0.998H1.22c-0.662,0-1.2-0.445-1.2-0.998V0.999
		C0.021,0.447,0.558,0,1.22,0h7.999c0.662,0,1.588,0.322,2.05,0.707l3.899,3.245c0.463,0.385,0.851,1.155,0.851,1.706V14.975z
		 M14.419,14.642V6.656h-5.2c-0.662,0-1.2-0.448-1.2-0.999V1.331H1.621v13.311H14.419z M14.319,5.324
		c-0.077-0.176-0.188-0.353-0.276-0.426l-3.912-3.255c-0.087-0.072-0.3-0.166-0.512-0.228v3.909H14.319z"/>
</g>
</svg>
