<?xml version="1.0" encoding="utf-8"?>
<!-- Generator: Adobe Illustrator 16.0.4, SVG Export Plug-In . SVG Version: 6.00 Build 0)  -->
<!DOCTYPE svg PUBLIC "-//W3C//DTD SVG 1.1//EN" "http://www.w3.org/Graphics/SVG/1.1/DTD/svg11.dtd" [
	<!ENTITY st0 "fill:#EC008C;">
]>
<svg version="1.1" id="Layer_1" xmlns="http://www.w3.org/2000/svg" xmlns:xlink="http://www.w3.org/1999/xlink" x="0px" y="0px"
	 width="16px" height="16px" viewBox="0 0 16 16" style="enable-background:new 0 0 16 16;" xml:space="preserve">
<g>
	<path style="&st0;" d="M15.843,5.029l-2.609,9.339c-0.235,0.877-1.07,1.558-1.887,1.558H2.588c-0.968,0-2.002-0.834-2.354-1.907
		c-0.152-0.462-0.152-0.917-0.019-1.309c0.019-0.206,0.057-0.414,0.066-0.66c0.01-0.165-0.076-0.298-0.056-0.424
		c0.038-0.246,0.237-0.421,0.389-0.701c0.285-0.515,0.607-1.35,0.711-1.886c0.048-0.196-0.047-0.422,0-0.598
		c0.048-0.195,0.229-0.34,0.323-0.526C1.904,7.441,2.236,6.523,2.284,6.04c0.019-0.216-0.076-0.454-0.02-0.619
		c0.066-0.237,0.276-0.34,0.418-0.546C2.91,4.534,3.29,3.555,3.346,3.008C3.366,2.833,3.271,2.658,3.3,2.472
		c0.038-0.196,0.265-0.401,0.417-0.639c0.399-0.639,0.474-2.051,1.68-1.681L5.387,0.184c0.161-0.041,0.322-0.093,0.484-0.093h7.221
		c0.446,0,0.845,0.216,1.082,0.577c0.247,0.372,0.305,0.856,0.172,1.34l-2.601,9.342c-0.444,1.588-0.691,1.938-1.898,1.938H1.601
		c-0.124,0-0.276,0.031-0.36,0.154c-0.077,0.124-0.086,0.217-0.01,0.443c0.19,0.597,0.845,0.722,1.367,0.722h8.758
		c0.352,0,0.761-0.217,0.863-0.588l2.847-10.175c0.058-0.196,0.058-0.402,0.047-0.588c0.219,0.093,0.417,0.237,0.562,0.444
		C15.912,4.069,15.979,4.555,15.843,5.029z M4.998,6.689h5.771c0.16,0,0.34-0.145,0.398-0.331l0.199-0.66
		c0.056-0.185-0.038-0.33-0.21-0.33H5.387c-0.162,0-0.342,0.145-0.399,0.33L4.79,6.358C4.732,6.544,4.828,6.689,4.998,6.689z
		 M5.786,4.049h5.768c0.163,0,0.344-0.144,0.399-0.33l0.199-0.66c0.059-0.186-0.036-0.33-0.207-0.33h-5.77
		c-0.162,0-0.342,0.144-0.399,0.33l-0.199,0.66C5.52,3.905,5.615,4.049,5.786,4.049z"/>
</g>
</svg>
