<?xml version="1.0" encoding="utf-8"?>
<!-- Generator: Adobe Illustrator 17.0.2, SVG Export Plug-In . SVG Version: 6.00 Build 0)  -->
<!DOCTYPE svg PUBLIC "-//W3C//DTD SVG 1.1//EN" "http://www.w3.org/Graphics/SVG/1.1/DTD/svg11.dtd" [
	<!ENTITY st0 "fill:#00A8E6;">
	<!ENTITY st1 "fill:#FFFFFF;">
]>
<svg version="1.1" id="Layer_1" xmlns="http://www.w3.org/2000/svg" xmlns:xlink="http://www.w3.org/1999/xlink" x="0px" y="0px"
	 width="600px" height="460px" viewBox="0 0 600 460" style="enable-background:new 0 0 600 460;" xml:space="preserve">
<rect style="&st0;" width="600" height="460"/>
<g>
	<path style="&st1;" d="M439.8,318.5c0,12.8-10.5,23.3-23.3,23.3H183.5c-12.8,0-23.3-10.5-23.3-23.3v-177
		c0-12.8,10.5-23.3,23.3-23.3h232.9c12.8,0,23.3,10.5,23.3,23.3V318.5z M183.5,136.8c-2.5,0-4.7,2.2-4.7,4.7v177
		c0,2.5,2.2,4.7,4.7,4.7h232.9c2.5,0,4.7-2.2,4.7-4.7v-177c0-2.5-2.2-4.7-4.7-4.7H183.5z M225.5,211.4c-15.4,0-28-12.5-28-28
		s12.5-28,28-28s28,12.5,28,28S240.9,211.4,225.5,211.4z M402.5,304.5h-205v-28l46.6-46.6l23.3,23.3l74.5-74.5l60.6,60.6V304.5z"/>
</g>
</svg>
