<?xml version="1.0" encoding="utf-8"?>
<!-- Generator: Adobe Illustrator 16.0.4, SVG Export Plug-In . SVG Version: 6.00 Build 0)  -->
<!DOCTYPE svg PUBLIC "-//W3C//DTD SVG 1.1//EN" "http://www.w3.org/Graphics/SVG/1.1/DTD/svg11.dtd" [
	<!ENTITY st0 "fill:#EC008C;">
]>
<svg version="1.1" id="Layer_1" xmlns="http://www.w3.org/2000/svg" xmlns:xlink="http://www.w3.org/1999/xlink" x="0px" y="0px"
	 width="16px" height="16px" viewBox="0 0 16 16" style="enable-background:new 0 0 16 16;" xml:space="preserve">
<g>
	<path style="&st0;" d="M16,14.86c0,0.622-0.558,1.14-1.231,1.14H1.231C0.558,16,0,15.482,0,14.86V3.454
		C0,2.83,0.558,2.313,1.231,2.313h1.23V1.458c0-0.783,0.693-1.425,1.539-1.425h0.616c0.846,0,1.538,0.642,1.538,1.425v0.855h3.692
		V1.458c0-0.783,0.693-1.425,1.54-1.425h0.613c0.848,0,1.539,0.642,1.539,1.425v0.855h1.23C15.442,2.313,16,2.83,16,3.454V14.86z
		 M4,8.301V5.735H1.231v2.566H4z M4,11.724V8.872H1.231v2.852H4z M4,14.86v-2.567H1.231v2.567H4z M4.923,1.458
		c0-0.151-0.145-0.285-0.307-0.285H4c-0.164,0-0.308,0.134-0.308,0.285v2.567c0,0.151,0.144,0.285,0.308,0.285h0.616
		c0.163,0,0.307-0.134,0.307-0.285V1.458z M7.692,8.301V5.735H4.616v2.566H7.692z M7.692,11.724V8.872H4.616v2.852H7.692z
		 M7.692,14.86v-2.567H4.616v2.567H7.692z M11.386,8.301V5.735H8.307v2.566H11.386z M11.386,11.724V8.872H8.307v2.852H11.386z
		 M11.386,14.86v-2.567H8.307v2.567H11.386z M12.308,1.458c0-0.151-0.144-0.285-0.309-0.285h-0.613
		c-0.166,0-0.309,0.134-0.309,0.285v2.567c0,0.151,0.143,0.285,0.309,0.285h0.613c0.165,0,0.309-0.134,0.309-0.285V1.458z
		 M14.769,8.301V5.735h-2.77v2.566H14.769z M14.769,11.724V8.872h-2.77v2.852H14.769z M14.769,14.86v-2.567h-2.77v2.567H14.769z"/>
</g>
</svg>
