<svg xmlns="http://www.w3.org/2000/svg" xmlns:xlink="http://www.w3.org/1999/xlink" id="Layer_1" width="16" height="16" x="0" y="0" enable-background="new 0 0 16 16" version="1.1" viewBox="0 0 16 16" xml:space="preserve"><g><path fill="#0FF" d="M16,14.461C16,15.308,15.4,16,14.666,16H1.333C0.6,16,0,15.308,0,14.461V1.539C0,0.692,0.6,0,1.333,0 h13.333C15.4,0,16,0.692,16,1.539V14.461z M3.2,1.846c0-0.336-0.242-0.615-0.534-0.615H1.6c-0.292,0-0.533,0.279-0.533,0.615v1.231 c0,0.336,0.241,0.615,0.533,0.615h1.067c0.292,0,0.534-0.279,0.534-0.615V1.846z M3.2,5.539c0-0.336-0.242-0.616-0.534-0.616H1.6 c-0.292,0-0.533,0.279-0.533,0.616v1.23c0,0.336,0.241,0.616,0.533,0.616h1.067c0.292,0,0.534-0.279,0.534-0.616V5.539z M3.2,9.23 c0-0.336-0.242-0.615-0.534-0.615H1.6c-0.292,0-0.533,0.279-0.533,0.615v1.231c0,0.336,0.241,0.615,0.533,0.615h1.067 c0.292,0,0.534-0.279,0.534-0.615V9.23z M3.2,12.923c0-0.336-0.242-0.615-0.534-0.615H1.6c-0.292,0-0.533,0.279-0.533,0.615v1.231 c0,0.336,0.241,0.615,0.533,0.615h1.067c0.292,0,0.534-0.279,0.534-0.615V12.923z M11.733,1.846c0-0.336-0.241-0.615-0.534-0.615 H4.8c-0.292,0-0.533,0.279-0.533,0.615v4.923c0,0.336,0.242,0.616,0.533,0.616h6.399c0.293,0,0.534-0.279,0.534-0.616V1.846z M11.733,9.23c0-0.336-0.241-0.615-0.534-0.615H4.8c-0.292,0-0.533,0.279-0.533,0.615v4.924c0,0.336,0.242,0.615,0.533,0.615h6.399 c0.293,0,0.534-0.279,0.534-0.615V9.23z M14.934,1.846c0-0.336-0.242-0.615-0.533-0.615h-1.067c-0.292,0-0.532,0.279-0.532,0.615 v1.231c0,0.336,0.24,0.615,0.532,0.615H14.4c0.291,0,0.533-0.279,0.533-0.615V1.846z M14.934,5.539 c0-0.336-0.242-0.616-0.533-0.616h-1.067c-0.292,0-0.532,0.279-0.532,0.616v1.23c0,0.336,0.24,0.616,0.532,0.616H14.4 c0.291,0,0.533-0.279,0.533-0.616V5.539z M14.934,9.23c0-0.336-0.242-0.615-0.533-0.615h-1.067c-0.292,0-0.532,0.279-0.532,0.615 v1.231c0,0.336,0.24,0.615,0.532,0.615H14.4c0.291,0,0.533-0.279,0.533-0.615V9.23z M14.934,12.923 c0-0.336-0.242-0.615-0.533-0.615h-1.067c-0.292,0-0.532,0.279-0.532,0.615v1.231c0,0.336,0.24,0.615,0.532,0.615H14.4 c0.291,0,0.533-0.279,0.533-0.615V12.923z"/></g></svg>