<svg xmlns="http://www.w3.org/2000/svg" xmlns:xlink="http://www.w3.org/1999/xlink" id="Layer_1" width="16" height="16" x="0" style="enable-background:new 0 0 16 16" y="0" version="1.1" viewBox="0 0 16 16" xml:space="preserve"><g><path style="fill:#0ff" d="M15.6,14.9c0,0.419-0.287,0.767-0.635,0.767H1.033c-0.346,0-0.633-0.348-0.633-0.767V9.127 c0-0.432,0.109-1.067,0.247-1.474L3.002,1.04c0.139-0.396,0.535-0.707,0.881-0.707h8.233c0.346,0,0.741,0.311,0.88,0.707 l2.355,6.613C15.49,8.06,15.6,8.695,15.6,9.127V14.9z M13.649,8.766c-0.021-0.059-0.029-0.13-0.049-0.189l-2.098-5.942H4.497 L2.398,8.576c-0.02,0.06-0.029,0.131-0.049,0.189h3.126l0.94,2.301h3.167l0.94-2.301H13.649z"/></g></svg>